<mxfile host="app.diagrams.net" modified="2024-05-07T16:36:19.236Z" agent="Mozilla/5.0 (Macintosh; Intel Mac OS X 10_15_7) AppleWebKit/537.36 (KHTML, like Gecko) Chrome/122.0.0.0 Safari/537.36 Edg/122.0.0.0" etag="8qTW_mJyb_FQRlUwl9Rl" version="24.3.1" type="github">
  <diagram id="prtHgNgQTEPvFCAcTncT" name="Page-1">
    <mxGraphModel dx="1258" dy="751" grid="1" gridSize="10" guides="1" tooltips="1" connect="1" arrows="1" fold="1" page="1" pageScale="1" pageWidth="827" pageHeight="1169" math="0" shadow="0">
      <root>
        <mxCell id="0" />
        <mxCell id="1" parent="0" />
        <mxCell id="yos79kglov3tE18eudvP-1" value="借款试算" style="swimlane;childLayout=stackLayout;resizeParent=1;resizeParentMax=0;startSize=20;html=1;labelBackgroundColor=none;fillColor=#B2C9AB;strokeColor=#788AA3;fontColor=#46495D;" vertex="1" parent="1">
          <mxGeometry x="110" y="300" width="1250" height="970" as="geometry" />
        </mxCell>
        <mxCell id="yos79kglov3tE18eudvP-2" value="xyf-api-gateway" style="swimlane;startSize=20;html=1;labelBackgroundColor=none;fillColor=#B2C9AB;strokeColor=#788AA3;fontColor=#46495D;" vertex="1" parent="yos79kglov3tE18eudvP-1">
          <mxGeometry y="20" width="140" height="950" as="geometry" />
        </mxCell>
        <mxCell id="yos79kglov3tE18eudvP-7" value="请求试算" style="rounded=0;whiteSpace=wrap;html=1;strokeColor=#788AA3;fontColor=#46495D;fillColor=#B2C9AB;" vertex="1" parent="yos79kglov3tE18eudvP-2">
          <mxGeometry x="10" y="40" width="120" height="60" as="geometry" />
        </mxCell>
        <mxCell id="yos79kglov3tE18eudvP-3" value="apiopfcore" style="swimlane;startSize=20;html=1;labelBackgroundColor=none;fillColor=#B2C9AB;strokeColor=#788AA3;fontColor=#46495D;" vertex="1" parent="yos79kglov3tE18eudvP-1">
          <mxGeometry x="140" y="20" width="450" height="950" as="geometry" />
        </mxCell>
        <mxCell id="yos79kglov3tE18eudvP-11" value="" style="edgeStyle=orthogonalEdgeStyle;rounded=1;orthogonalLoop=1;jettySize=auto;html=1;strokeColor=#788AA3;fontColor=#46495D;fillColor=#B2C9AB;curved=0;" edge="1" parent="yos79kglov3tE18eudvP-3" source="yos79kglov3tE18eudvP-8" target="yos79kglov3tE18eudvP-10">
          <mxGeometry relative="1" as="geometry" />
        </mxCell>
        <mxCell id="yos79kglov3tE18eudvP-8" value="试算接口" style="rounded=0;whiteSpace=wrap;html=1;strokeColor=#788AA3;fontColor=#46495D;fillColor=#B2C9AB;" vertex="1" parent="yos79kglov3tE18eudvP-3">
          <mxGeometry x="70" y="40" width="120" height="60" as="geometry" />
        </mxCell>
        <mxCell id="yos79kglov3tE18eudvP-13" value="" style="edgeStyle=orthogonalEdgeStyle;curved=0;rounded=1;orthogonalLoop=1;jettySize=auto;html=1;strokeColor=#788AA3;align=center;verticalAlign=middle;fontFamily=Helvetica;fontSize=11;fontColor=#46495D;labelBackgroundColor=default;endArrow=classic;fillColor=#B2C9AB;" edge="1" parent="yos79kglov3tE18eudvP-3" source="yos79kglov3tE18eudvP-10" target="yos79kglov3tE18eudvP-12">
          <mxGeometry relative="1" as="geometry" />
        </mxCell>
        <mxCell id="yos79kglov3tE18eudvP-10" value="新建cash_out_loan_order表数据" style="rounded=0;whiteSpace=wrap;html=1;strokeColor=#788AA3;fontColor=#46495D;fillColor=#B2C9AB;" vertex="1" parent="yos79kglov3tE18eudvP-3">
          <mxGeometry x="40" y="150" width="180" height="60" as="geometry" />
        </mxCell>
        <mxCell id="yos79kglov3tE18eudvP-34" value="" style="edgeStyle=orthogonalEdgeStyle;curved=0;rounded=1;orthogonalLoop=1;jettySize=auto;html=1;strokeColor=#788AA3;align=center;verticalAlign=middle;fontFamily=Helvetica;fontSize=11;fontColor=#46495D;labelBackgroundColor=default;endArrow=classic;fillColor=#B2C9AB;" edge="1" parent="yos79kglov3tE18eudvP-3" source="yos79kglov3tE18eudvP-12" target="yos79kglov3tE18eudvP-33">
          <mxGeometry relative="1" as="geometry" />
        </mxCell>
        <mxCell id="yos79kglov3tE18eudvP-12" value="用户是否已开户校验" style="rounded=0;whiteSpace=wrap;html=1;strokeColor=#788AA3;fontColor=#46495D;fillColor=#B2C9AB;" vertex="1" parent="yos79kglov3tE18eudvP-3">
          <mxGeometry x="40" y="265" width="180" height="60" as="geometry" />
        </mxCell>
        <mxCell id="yos79kglov3tE18eudvP-27" value="" style="edgeStyle=orthogonalEdgeStyle;curved=0;rounded=1;orthogonalLoop=1;jettySize=auto;html=1;strokeColor=#788AA3;align=center;verticalAlign=middle;fontFamily=Helvetica;fontSize=11;fontColor=#46495D;labelBackgroundColor=default;endArrow=classic;fillColor=#B2C9AB;" edge="1" parent="yos79kglov3tE18eudvP-3" source="yos79kglov3tE18eudvP-19" target="yos79kglov3tE18eudvP-26">
          <mxGeometry relative="1" as="geometry" />
        </mxCell>
        <mxCell id="yos79kglov3tE18eudvP-19" value="请求试算接口" style="rounded=0;whiteSpace=wrap;html=1;strokeColor=#788AA3;fontColor=#46495D;fillColor=#B2C9AB;" vertex="1" parent="yos79kglov3tE18eudvP-3">
          <mxGeometry x="40" y="540" width="180" height="60" as="geometry" />
        </mxCell>
        <mxCell id="yos79kglov3tE18eudvP-31" value="" style="edgeStyle=orthogonalEdgeStyle;curved=0;rounded=1;orthogonalLoop=1;jettySize=auto;html=1;strokeColor=#788AA3;align=center;verticalAlign=middle;fontFamily=Helvetica;fontSize=11;fontColor=#46495D;labelBackgroundColor=default;endArrow=classic;fillColor=#B2C9AB;" edge="1" parent="yos79kglov3tE18eudvP-3" source="yos79kglov3tE18eudvP-26" target="yos79kglov3tE18eudvP-30">
          <mxGeometry relative="1" as="geometry" />
        </mxCell>
        <mxCell id="yos79kglov3tE18eudvP-26" value="构造试算返回结果" style="rounded=0;whiteSpace=wrap;html=1;strokeColor=#788AA3;fontColor=#46495D;fillColor=#B2C9AB;" vertex="1" parent="yos79kglov3tE18eudvP-3">
          <mxGeometry x="40" y="680" width="180" height="60" as="geometry" />
        </mxCell>
        <mxCell id="yos79kglov3tE18eudvP-30" value="保存试算结果" style="whiteSpace=wrap;html=1;fillColor=#B2C9AB;strokeColor=#788AA3;fontColor=#46495D;rounded=0;" vertex="1" parent="yos79kglov3tE18eudvP-3">
          <mxGeometry x="70" y="800" width="120" height="60" as="geometry" />
        </mxCell>
        <mxCell id="yos79kglov3tE18eudvP-38" value="" style="edgeStyle=orthogonalEdgeStyle;curved=0;rounded=1;orthogonalLoop=1;jettySize=auto;html=1;entryX=0.5;entryY=0;entryDx=0;entryDy=0;strokeColor=#788AA3;align=center;verticalAlign=middle;fontFamily=Helvetica;fontSize=11;fontColor=#46495D;labelBackgroundColor=default;endArrow=classic;fillColor=#B2C9AB;" edge="1" parent="yos79kglov3tE18eudvP-3" source="yos79kglov3tE18eudvP-33" target="yos79kglov3tE18eudvP-19">
          <mxGeometry x="0.0013" relative="1" as="geometry">
            <mxPoint as="offset" />
          </mxGeometry>
        </mxCell>
        <mxCell id="yos79kglov3tE18eudvP-39" value="新增入参：支持放款期数、&lt;div&gt;还款方式是否仅支持按日计息、&lt;/div&gt;&lt;div&gt;试算失败是否返回默认还款计划&lt;/div&gt;" style="edgeLabel;html=1;align=center;verticalAlign=middle;resizable=0;points=[];strokeColor=#788AA3;fontFamily=Helvetica;fontSize=11;fontColor=#46495D;labelBackgroundColor=default;fillColor=#B2C9AB;" vertex="1" connectable="0" parent="yos79kglov3tE18eudvP-38">
          <mxGeometry x="0.083" relative="1" as="geometry">
            <mxPoint as="offset" />
          </mxGeometry>
        </mxCell>
        <mxCell id="yos79kglov3tE18eudvP-33" value="请求查询后台配置" style="rounded=0;whiteSpace=wrap;html=1;strokeColor=#788AA3;fontColor=#46495D;fillColor=#B2C9AB;" vertex="1" parent="yos79kglov3tE18eudvP-3">
          <mxGeometry x="40" y="390" width="180" height="60" as="geometry" />
        </mxCell>
        <mxCell id="yos79kglov3tE18eudvP-4" value="借款引擎lendtrade" style="swimlane;startSize=20;html=1;labelBackgroundColor=none;fillColor=#B2C9AB;strokeColor=#788AA3;fontColor=#46495D;" vertex="1" parent="yos79kglov3tE18eudvP-1">
          <mxGeometry x="590" y="20" width="280" height="950" as="geometry" />
        </mxCell>
        <mxCell id="yos79kglov3tE18eudvP-21" value="试算接口" style="rounded=0;whiteSpace=wrap;html=1;strokeColor=#788AA3;fontColor=#46495D;fillColor=#B2C9AB;" vertex="1" parent="yos79kglov3tE18eudvP-4">
          <mxGeometry x="90" y="540" width="120" height="60" as="geometry" />
        </mxCell>
        <mxCell id="yos79kglov3tE18eudvP-6" value="风控系统" style="swimlane;startSize=20;html=1;labelBackgroundColor=none;fillColor=#B2C9AB;strokeColor=#788AA3;fontColor=#46495D;" vertex="1" parent="yos79kglov3tE18eudvP-1">
          <mxGeometry x="870" y="20" width="190" height="950" as="geometry" />
        </mxCell>
        <mxCell id="yos79kglov3tE18eudvP-16" value="额度信息查询接口" style="rounded=0;whiteSpace=wrap;html=1;strokeColor=#788AA3;fontColor=#46495D;fillColor=#B2C9AB;" vertex="1" parent="yos79kglov3tE18eudvP-6">
          <mxGeometry x="35" y="265" width="120" height="60" as="geometry" />
        </mxCell>
        <mxCell id="yos79kglov3tE18eudvP-32" value="商户后台" style="swimlane;startSize=20;html=1;labelBackgroundColor=none;fillColor=#B2C9AB;strokeColor=#788AA3;fontColor=#46495D;" vertex="1" parent="yos79kglov3tE18eudvP-1">
          <mxGeometry x="1060" y="20" width="190" height="950" as="geometry" />
        </mxCell>
        <mxCell id="yos79kglov3tE18eudvP-35" value="查询后台配置接口" style="rounded=0;whiteSpace=wrap;html=1;strokeColor=#788AA3;fontColor=#46495D;fillColor=#B2C9AB;" vertex="1" parent="yos79kglov3tE18eudvP-32">
          <mxGeometry x="40" y="380" width="135" height="70" as="geometry" />
        </mxCell>
        <mxCell id="yos79kglov3tE18eudvP-9" value="" style="edgeStyle=orthogonalEdgeStyle;rounded=0;orthogonalLoop=1;jettySize=auto;html=1;strokeColor=#788AA3;fontColor=#46495D;fillColor=#B2C9AB;" edge="1" parent="yos79kglov3tE18eudvP-1" source="yos79kglov3tE18eudvP-7" target="yos79kglov3tE18eudvP-8">
          <mxGeometry relative="1" as="geometry" />
        </mxCell>
        <mxCell id="yos79kglov3tE18eudvP-17" value="" style="edgeStyle=orthogonalEdgeStyle;curved=0;rounded=1;orthogonalLoop=1;jettySize=auto;html=1;strokeColor=#788AA3;align=center;verticalAlign=middle;fontFamily=Helvetica;fontSize=11;fontColor=#46495D;labelBackgroundColor=default;endArrow=classic;fillColor=#B2C9AB;" edge="1" parent="yos79kglov3tE18eudvP-1" source="yos79kglov3tE18eudvP-12" target="yos79kglov3tE18eudvP-16">
          <mxGeometry relative="1" as="geometry" />
        </mxCell>
        <mxCell id="yos79kglov3tE18eudvP-18" value="&lt;article data-identifier-application__slash__x-doc-key=&quot;4jKqmVQ91L0bOw19&quot; data-identifier-application__slash__x-cangjie-fragment=&quot;JTdCJTIya2xhc3MlMjIlM0ElMjJkb2N1bWVudCUyMiUyQyUyMmRhdGElMjIlM0ElN0IlN0QlMkMlMjJub2RlcyUyMiUzQSU1QiU3QiUyMmtsYXNzJTIyJTNBJTIyYmxvY2slMjIlMkMlMjJ0eXBlJTIyJTNBJTIycGFyYWdyYXBoJTIyJTJDJTIyZGF0YSUyMiUzQSU3QiUyMnV1aWQlMjIlM0ElMjJsdnZzdnR6dnBjYWJvZ2QwbXolMjIlN0QlMkMlMjJub2RlcyUyMiUzQSU1QiU3QiUyMmtsYXNzJTIyJTNBJTIydGV4dCUyMiUyQyUyMmxlYXZlcyUyMiUzQSU1QiU3QiUyMmtsYXNzJTIyJTNBJTIybGVhZiUyMiUyQyUyMnRleHQlMjIlM0ElMjIlMjIlMkMlMjJtYXJrcyUyMiUzQSU1QiU1RCU3RCU1RCU3RCUyQyU3QiUyMmtsYXNzJTIyJTNBJTIyaW5saW5lJTIyJTJDJTIydHlwZSUyMiUzQSUyMmxpbmslMjIlMkMlMjJkYXRhJTIyJTNBJTdCJTIyaHJlZiUyMiUzQSUyMmh0dHBzJTNBJTJGJTJGYWxpZG9jcy5kaW5ndGFsay5jb20lMkZpJTJGbm9kZXMlMkZFcEdCYTJMbThhem93T2p5RjQ5eFhPQU5XZ043UjM1eSUzRnV0bV9zY2VuZSUzRHBlcnNvbl9zcGFjZSUyNmlmcmFtZVF1ZXJ5JTNEYW5jaG9ySWQlMjUzRHV1X2x0MmRpazNoZzdlM2FkaGliNyUyMiUyQyUyMnV1aWQlMjIlM0ElMjJsdGkyZHU4YXBkeHZlNTRtNmdkJTIyJTdEJTJDJTIybm9kZXMlMjIlM0ElNUIlN0IlMjJrbGFzcyUyMiUzQSUyMnRleHQlMjIlMkMlMjJsZWF2ZXMlMjIlM0ElNUIlN0IlMjJrbGFzcyUyMiUzQSUyMmxlYWYlMjIlMkMlMjJ0ZXh0JTIyJTNBJTIyY3JlZGl0JTJGdjIlMkZhbW91bnQtaW5mbyUyMiUyQyUyMm1hcmtzJTIyJTNBJTVCJTVEJTdEJTVEJTdEJTVEJTdEJTJDJTdCJTIya2xhc3MlMjIlM0ElMjJ0ZXh0JTIyJTJDJTIybGVhdmVzJTIyJTNBJTVCJTdCJTIya2xhc3MlMjIlM0ElMjJsZWFmJTIyJTJDJTIydGV4dCUyMiUzQSUyMiUyMiUyQyUyMm1hcmtzJTIyJTNBJTVCJTVEJTdEJTVEJTdEJTVEJTdEJTVEJTdE&quot; data-clipboard-cangjie=&quot;[&amp;quot;root&amp;quot;,{},[&amp;quot;p&amp;quot;,{&amp;quot;uuid&amp;quot;:&amp;quot;lvvsvtzvpcabogd0mz&amp;quot;},[&amp;quot;span&amp;quot;,{&amp;quot;data-type&amp;quot;:&amp;quot;text&amp;quot;},[&amp;quot;span&amp;quot;,{&amp;quot;data-type&amp;quot;:&amp;quot;leaf&amp;quot;},&amp;quot;&amp;quot;]],[&amp;quot;a&amp;quot;,{&amp;quot;href&amp;quot;:&amp;quot;https://alidocs.dingtalk.com/i/nodes/EpGBa2Lm8azowOjyF49xXOANWgN7R35y?utm_scene=person_space&amp;amp;iframeQuery=anchorId%3Duu_lt2dik3hg7e3adhib7&amp;quot;,&amp;quot;uuid&amp;quot;:&amp;quot;lti2du8apdxve54m6gd&amp;quot;},[&amp;quot;span&amp;quot;,{&amp;quot;data-type&amp;quot;:&amp;quot;text&amp;quot;},[&amp;quot;span&amp;quot;,{&amp;quot;data-type&amp;quot;:&amp;quot;leaf&amp;quot;},&amp;quot;credit/v2/amount-info&amp;quot;]]],[&amp;quot;span&amp;quot;,{&amp;quot;data-type&amp;quot;:&amp;quot;text&amp;quot;},[&amp;quot;span&amp;quot;,{&amp;quot;data-type&amp;quot;:&amp;quot;leaf&amp;quot;},&amp;quot;&amp;quot;]]]]&quot; class=&quot;4ever-article&quot;&gt;&lt;p style=&quot;text-align: left; margin-left: 0px; margin-top: 0px; margin-bottom: 0px;&quot;&gt;&lt;span data-type=&quot;text&quot;&gt;&lt;/span&gt;&lt;a rel=&quot;noopener noreferrer&quot; target=&quot;_blank&quot; data-link-href-cangjie=&quot;https://alidocs.dingtalk.com/i/nodes/EpGBa2Lm8azowOjyF49xXOANWgN7R35y?utm_scene=person_space&amp;amp;iframeQuery=anchorId%3Duu_lt2dik3hg7e3adhib7&quot; href=&quot;https://alidocs.dingtalk.com/i/nodes/EpGBa2Lm8azowOjyF49xXOANWgN7R35y?utm_scene=person_space&amp;amp;iframeQuery=anchorId%3Duu_lt2dik3hg7e3adhib7&quot;&gt;&lt;span data-type=&quot;text&quot;&gt;credit/v2/amount-info&lt;/span&gt;&lt;/a&gt;&lt;span data-type=&quot;text&quot;&gt;&lt;/span&gt;&lt;/p&gt;&lt;/article&gt;" style="edgeLabel;html=1;align=center;verticalAlign=middle;resizable=0;points=[];strokeColor=#788AA3;fontFamily=Helvetica;fontSize=11;fontColor=#46495D;labelBackgroundColor=default;fillColor=#B2C9AB;" vertex="1" connectable="0" parent="yos79kglov3tE18eudvP-17">
          <mxGeometry x="-0.0841" y="3" relative="1" as="geometry">
            <mxPoint as="offset" />
          </mxGeometry>
        </mxCell>
        <mxCell id="yos79kglov3tE18eudvP-22" value="" style="edgeStyle=orthogonalEdgeStyle;curved=0;rounded=1;orthogonalLoop=1;jettySize=auto;html=1;strokeColor=#788AA3;align=center;verticalAlign=middle;fontFamily=Helvetica;fontSize=11;fontColor=#46495D;labelBackgroundColor=default;endArrow=classic;fillColor=#B2C9AB;" edge="1" parent="yos79kglov3tE18eudvP-1" source="yos79kglov3tE18eudvP-19" target="yos79kglov3tE18eudvP-21">
          <mxGeometry relative="1" as="geometry" />
        </mxCell>
        <mxCell id="yos79kglov3tE18eudvP-25" value="&lt;div&gt;/lend/trade/v1/trial&lt;/div&gt;" style="edgeLabel;html=1;align=center;verticalAlign=middle;resizable=0;points=[];strokeColor=#788AA3;fontFamily=Helvetica;fontSize=11;fontColor=#46495D;labelBackgroundColor=default;fillColor=#B2C9AB;" vertex="1" connectable="0" parent="yos79kglov3tE18eudvP-22">
          <mxGeometry x="-0.0602" y="1" relative="1" as="geometry">
            <mxPoint as="offset" />
          </mxGeometry>
        </mxCell>
        <mxCell id="yos79kglov3tE18eudvP-36" style="edgeStyle=orthogonalEdgeStyle;curved=0;rounded=1;orthogonalLoop=1;jettySize=auto;html=1;entryX=-0.013;entryY=0.567;entryDx=0;entryDy=0;entryPerimeter=0;strokeColor=#788AA3;align=center;verticalAlign=middle;fontFamily=Helvetica;fontSize=11;fontColor=#46495D;labelBackgroundColor=default;endArrow=classic;fillColor=#B2C9AB;" edge="1" parent="yos79kglov3tE18eudvP-1" source="yos79kglov3tE18eudvP-33" target="yos79kglov3tE18eudvP-35">
          <mxGeometry relative="1" as="geometry" />
        </mxCell>
        <mxCell id="yos79kglov3tE18eudvP-37" value="按innert-app查询" style="edgeLabel;html=1;align=center;verticalAlign=middle;resizable=0;points=[];strokeColor=#788AA3;fontFamily=Helvetica;fontSize=11;fontColor=#46495D;labelBackgroundColor=default;fillColor=#B2C9AB;" vertex="1" connectable="0" parent="yos79kglov3tE18eudvP-36">
          <mxGeometry x="-0.0547" y="-1" relative="1" as="geometry">
            <mxPoint as="offset" />
          </mxGeometry>
        </mxCell>
      </root>
    </mxGraphModel>
  </diagram>
</mxfile>
